{"title":"The.Tourist.2010.TS.XViD-T0XiC-iNK","uid":6055243,"size":907491121,"categoryP":"video","categoryS":"movies","magnet":"?xt=urn:btih:e2f41aa19e558a5e952a1105e1432cb0f9145591&amp;dn=The.Tourist.2010.TS.XViD-T0XiC-iNK&amp;tr=udp%3A%2F%2Ftracker.openbittorrent.com%3A80&amp;tr=udp%3A%2F%2Fopen.demonii.com%3A1337&amp;tr=udp%3A%2F%2Ftracker.coppersurfer.tk%3A6969&amp;tr=udp%3A%2F%2Fexodus.desync.com%3A6969","seeders":0,"leechers":0,"uploader":"SAFCukO09","files":4,"time":1292882973,"description":"::::::::::::::Enjoy:Another:Release:From:T0XiC::::::::::::::\n\nFile::The.Tourist.2010.TS.XViD-T0XiC-iNK\nVideo: The Tourist 2010 TRUEFRENCH TS MD XviD-SERENiTY (thanks)\nAudio: Our Own (T0XiC)\nLanguage::English\nIMDB::http://www.imdb.com/title/tt1243957/\n\nSynopsis::Revolves around Frank, an American tourist visiting Italy to mend a\n\nbroken heart. Elise is an extraordinary woman who deliberately crosses his path.\n\nSpecs::\n\nGeneral\n\nFormat : AVI\nFormat/Info : Audio Video Interleave\nFile size : 846 MiB\nDuration : 1h 35mn\nOverall bit rate : 1 232 Kbps\n\nVideo\nID : 0\nFormat : MPEG-4 Visual\nFormat profile : Advanced Simple@L5\nFormat settings, BVOP : Yes\nFormat settings, QPel : No\nFormat settings, GMC : No warppoints\nFormat settings, Matrix : Custom\nCodec ID : XVID\nCodec ID/Hint : XviD\nDuration : 1h 35mn\nBit rate : 1 062 Kbps\nWidth : 704 pixels\nHeight : 302 pixels\nDisplay aspect ratio : 2.35:1\nFrame rate : 25.000 fps\nColor space : YUV\nChroma subsampling : 4:2:0\nBit depth : 8 bits\nScan type : Progressive\nBits/(Pixel*Frame) : 0.200\nStream size : 729 MiB (86%)\nWriting library : XviD 1.2.0.dev47 (UTC 2006-11-01)\n\nAudio\nID : 1\nFormat : MPEG Audio\nFormat version : Version 1\nFormat profile : Layer 3\nCodec ID : 55\nCodec ID/Hint : MP3\nDuration : 1h 35mn\nBit rate mode : Constant\nBit rate : 160 Kbps\nChannel(s) : 2 channels\nSampling rate : 44.1 KHz\nStream size : 110 MiB (13%)\nAlignment : Split accross interleaves\nInterleave, duration : 40 ms (1.00 video frame)\nInterleave, preload duration : 500 ms ","torrent":{"xt":"urn:btih:e2f41aa19e558a5e952a1105e1432cb0f9145591","amp;dn":"The.Tourist.2010.TS.XViD-T0XiC-iNK","amp;tr":["udp%3A%2F%2Ftracker.openbittorrent.com%3A80","udp%3A%2F%2Fopen.demonii.com%3A1337","udp%3A%2F%2Ftracker.coppersurfer.tk%3A6969","udp%3A%2F%2Fexodus.desync.com%3A6969"],"infoHash":"e2f41aa19e558a5e952a1105e1432cb0f9145591","infoHashBuffer":{"type":"Buffer","data":[226,244,26,161,158,85,138,94,149,42,17,5,225,67,44,176,249,20,85,145]},"announce":[],"urlList":[]}}